<?xml version="1.0" standalone="no"?>
<!DOCTYPE svg PUBLIC "-//W3C//DTD SVG 20010904//EN"
 "http://www.w3.org/TR/2001/REC-SVG-20010904/DTD/svg10.dtd">
<svg version="1.0" xmlns="http://www.w3.org/2000/svg"
 width="600.000000pt" height="160.000000pt" viewBox="0 0 600.000000 160.000000"
 preserveAspectRatio="xMidYMid meet">

<g transform="translate(0.000000,160.000000) scale(0.100000,-0.100000)"
fill="#000000" stroke="none">
<path d="M777 1398 c-6 -166 -14 -230 -38 -290 -11 -26 -16 -28 -65 -28 -47 0
-54 -3 -54 -19 0 -11 9 -23 20 -26 12 -4 20 -15 20 -27 0 -21 -1 -21 -210 -14
l-211 6 -18 -42 c-33 -80 -60 -203 -86 -391 l-6 -47 65 0 c36 0 66 -3 66 -7 0
-3 -11 -26 -25 -49 -26 -44 -42 -52 -157 -80 -33 -7 -48 -49 -48 -130 0 -47 3
-55 37 -85 118 -103 346 -144 743 -135 406 9 2616 24 3660 25 l1045 1 224 272
c124 150 226 281 229 293 l4 22 -348 6 c-191 4 -407 7 -480 7 l-132 0 -22 -35
c-79 -128 -342 -215 -740 -244 -315 -23 -741 -25 -740 -2 0 3 13 21 29 40 22
27 38 36 72 40 l44 6 9 72 c5 39 5 100 2 135 -6 55 -11 65 -35 79 -40 23 -53
74 -30 120 25 50 42 163 34 227 l-6 52 -62 1 c-34 1 -147 4 -251 8 l-189 6
-23 69 c-13 38 -26 71 -29 74 -2 3 -32 -1 -65 -8 -64 -14 -71 -26 -27 -48 29
-14 38 -59 15 -67 -18 -6 -1146 -35 -1344 -35 l-161 0 -7 -31 c-3 -17 -6 -57
-6 -89 l0 -57 -142 -6 c-79 -4 -216 -7 -305 -7 l-162 0 -10 38 c-23 86 -33
178 -38 370 -5 182 -8 202 -23 202 -15 0 -18 -19 -23 -172z"/>
</g>
</svg>
