<?xml version="1.0" standalone="no"?>
<!DOCTYPE svg PUBLIC "-//W3C//DTD SVG 20010904//EN"
 "http://www.w3.org/TR/2001/REC-SVG-20010904/DTD/svg10.dtd">
<svg version="1.0" xmlns="http://www.w3.org/2000/svg"
 width="600.000000pt" height="160.000000pt" viewBox="0 0 600.000000 160.000000"
 preserveAspectRatio="xMidYMid meet">

<g transform="translate(0.000000,160.000000) scale(0.100000,-0.100000)"
fill="#000000" stroke="none">
<path d="M2865 1488 c-2 -7 -18 -94 -35 -193 -17 -99 -34 -188 -37 -199 -5
-18 -24 -18 -638 -11 l-632 7 -7 -73 c-4 -41 -9 -89 -13 -106 l-5 -33 -443 0
-443 0 -7 -50 -7 -50 -53 0 -53 0 -21 77 c-23 85 -30 96 -51 83 -12 -8 -15
-32 -13 -130 l3 -120 -80 0 -80 0 0 -80 0 -81 -68 3 c-61 3 -67 5 -70 26 -4
27 -13 28 -40 5 l-20 -18 45 -241 46 -241 1461 -6 c804 -4 2060 -7 2793 -7
l1332 0 21 30 c64 89 175 387 186 499 l7 58 -49 -4 c-27 -2 -178 -14 -337 -27
l-287 -22 -10 36 c-5 19 -13 51 -17 70 -9 35 -9 35 -71 38 -57 3 -62 5 -62 26
0 13 -3 38 -6 55 -6 30 -7 31 -65 31 -33 0 -59 4 -59 9 0 5 9 30 20 56 35 82
33 85 -65 85 -47 0 -85 1 -86 3 -1 1 -13 103 -27 227 l-27 225 -35 -3 c-19 -2
-36 -5 -36 -5 -1 -1 -6 -100 -12 -220 -6 -120 -12 -220 -14 -222 -2 -2 -294
-7 -651 -11 l-647 -7 0 36 0 37 -104 0 -104 0 -6 28 c-3 15 -15 101 -26 192
-11 91 -23 180 -26 198 l-6 32 -129 0 c-95 0 -131 -3 -134 -12z"/>
</g>
</svg>
